<svg width="331" height="77" viewBox="0 0 331 77" fill="none" xmlns="http://www.w3.org/2000/svg">
<g clip-path="url(#clip0_1_698)">
<path d="M0 76.9999V2.12158H16.7567V76.9999H0ZM12.8328 16.5438V2.12158H53.3462V16.5438H12.8328ZM12.8328 45.8175V31.7111H50.1672V45.8175H12.8328ZM12.8328 76.9999V62.5777H53.9848V76.9999H12.8328Z" fill="#FAF7FF"/>
<path d="M63.7415 76.9999V-3.05176e-05H80.0759V76.9999H63.7415Z" fill="#FAF7FF"/>
<path d="M90.3752 76.9999V25.432H106.71V76.9999H90.3752Z" fill="#FAF7FF"/>
<path d="M116.023 67.4526L141.795 34.9999H161.735L135.75 67.4526H116.023ZM116.023 76.9999V67.4526L127.583 63.3158H160.993V76.9965H116.023V76.9999ZM117.826 39.1368V25.4561H161.735V35.0034L150.175 39.1402H117.829L117.826 39.1368Z" fill="#FAF7FF"/>
<path d="M201.815 74.9024C196.439 76.4232 191.365 76.667 186.59 75.6336C181.814 74.6003 177.674 72.4443 174.179 69.1726C170.681 65.9043 168.22 61.7503 166.791 56.714C165.404 51.8151 165.312 47.0843 166.517 42.5149C167.722 37.949 170.012 33.9735 173.39 30.5919C176.768 27.2104 180.973 24.8072 186.01 23.3825C190.974 21.975 195.629 21.7999 199.965 22.847C204.304 23.8975 208.091 25.9848 211.328 29.1088C214.566 32.2364 216.869 36.2118 218.236 41.0421C218.507 41.9965 218.73 42.9784 218.905 43.9946C219.084 45.0108 219.173 46.178 219.18 47.4997L176.582 59.7832L173.52 48.9656L209.382 38.5875L203.947 45.0863C203.089 42.3158 201.987 40.1118 200.641 38.4708C199.296 36.8298 197.679 35.7278 195.79 35.1579C193.902 34.5914 191.836 34.6258 189.59 35.2609C187.139 35.9544 185.179 37.1353 183.703 38.8038C182.226 40.4723 181.286 42.4634 180.877 44.7842C180.469 47.1049 180.668 49.6934 181.478 52.5497C182.288 55.406 183.517 57.7405 185.169 59.5497C186.82 61.3624 188.777 62.5502 191.032 63.1236C193.291 63.6969 195.746 63.6076 198.396 62.8558C200.775 62.1829 202.832 61.1392 204.565 59.7317C206.299 58.3241 207.672 56.5561 208.685 54.4311L219.787 60.5453C218.167 64.1638 215.819 67.1643 212.746 69.5399C209.67 71.9156 206.024 73.7042 201.809 74.8989L201.815 74.9024Z" fill="#FAF7FF"/>
<path d="M227.172 76.9999V25.4526H243.507V76.9965H227.172V76.9999ZM243.507 48.7871L236.719 43.483C238.062 37.4031 240.341 32.6998 243.562 29.3766C246.778 26.0534 251.179 24.3918 256.765 24.3918C259.24 24.3918 261.413 24.7626 263.288 25.5041C265.162 26.2457 266.803 27.3614 268.218 28.8445L258.567 41.1451C257.932 40.4413 257.081 39.8715 256.024 39.4492C254.963 39.0269 253.758 38.8141 252.419 38.8141C249.662 38.8141 247.489 39.6449 245.896 41.3065C244.307 42.9681 243.51 45.4605 243.51 48.7837L243.507 48.7871Z" fill="#FAF7FF"/>
<path d="M271.589 76.8867V25.3428H287.923V76.8867H271.589ZM287.923 48.6738L281.136 43.3697C282.479 37.2898 284.758 32.5865 287.978 29.2633C291.195 25.9401 295.596 24.2785 301.182 24.2785C303.657 24.2785 305.83 24.6493 307.705 25.3908C309.579 26.1324 311.22 27.2481 312.634 28.7312L302.984 41.0318C302.349 40.3281 301.498 39.7582 300.44 39.3359C299.379 38.9136 298.174 38.7008 296.836 38.7008C294.079 38.7008 291.906 39.5316 290.313 41.1932C288.723 42.8548 287.927 45.3472 287.927 48.6704L287.923 48.6738Z" fill="#FAF7FF"/>
<path d="M98.6728 21.7861C103.18 21.7861 106.833 18.1326 106.833 13.6258C106.833 9.11892 103.18 5.46539 98.6728 5.46539C94.166 5.46539 90.5125 9.11892 90.5125 13.6258C90.5125 18.1326 94.166 21.7861 98.6728 21.7861Z" fill="#FAF7FF"/>
<path d="M321.481 76.3889C326.239 76.3889 330.095 72.5325 330.095 67.7753C330.095 63.0182 326.239 59.1618 321.481 59.1618C316.724 59.1618 312.868 63.0182 312.868 67.7753C312.868 72.5325 316.724 76.3889 321.481 76.3889Z" fill="#FAF7FF"/>
</g>
<defs>
<clipPath id="clip0_1_698">
<rect width="330.095" height="77" fill="white"/>
</clipPath>
</defs>
</svg>
