<svg width="125" height="90" viewBox="0 0 125 90" fill="none" xmlns="http://www.w3.org/2000/svg">
<g clip-path="url(#clip0_1_723)">
<path d="M59.3769 87.356C50.5458 89.8569 42.2049 90.2558 34.3597 88.5546C26.5127 86.8552 19.7132 83.3157 13.9663 77.9397C8.21775 72.5672 4.17212 65.743 1.82945 57.4707C-0.449957 49.4216 -0.599339 41.6485 1.3813 34.1424C3.36018 26.6399 7.12462 20.111 12.6764 14.5522C18.2264 8.99693 25.1349 5.04795 33.4089 2.70352C41.567 0.392484 49.2119 0.100748 56.3418 1.82304C63.47 3.54709 69.6949 6.97762 75.0129 12.1094C80.3309 17.2464 84.1147 23.7805 86.3625 31.7154C86.8071 33.283 87.1726 34.8981 87.4644 36.5659C87.7561 38.2355 87.9055 40.1546 87.916 42.3233L17.9276 62.5076L12.8943 44.7345L71.8161 27.6856L62.8865 38.3638C61.4753 33.8138 59.6651 30.1917 57.4543 27.4975C55.2434 24.8034 52.5844 22.9914 49.4843 22.0565C46.3824 21.125 42.987 21.1795 39.2999 22.2234C35.2753 23.364 32.0504 25.3042 29.6287 28.0423C27.2034 30.7839 25.6551 34.0581 24.9873 37.87C24.3142 41.6819 24.6446 45.9366 25.975 50.6308C27.3053 55.3249 29.3246 59.1614 32.0399 62.1332C34.7551 65.1086 37.966 67.0664 41.6724 68.0083C45.3806 68.9521 49.4157 68.8045 53.7742 67.5707C57.6845 66.4636 61.0641 64.7518 63.9111 62.4355C66.7564 60.1209 69.013 57.2177 70.6825 53.7256L88.9231 63.7729C86.2605 69.7201 82.4029 74.648 77.3521 78.5512C72.2994 82.4563 66.3083 85.3912 59.3787 87.3543L59.3769 87.356Z" fill="#FAF7FF"/>
<path d="M110.719 89.711C118.534 89.711 124.87 83.3754 124.87 75.5601C124.87 67.7447 118.534 61.4091 110.719 61.4091C102.903 61.4091 96.5679 67.7447 96.5679 75.5601C96.5679 83.3754 102.903 89.711 110.719 89.711Z" fill="#FAF7FF"/>
</g>
<defs>
<clipPath id="clip0_1_723">
<rect width="124.875" height="88.9934" fill="white" transform="translate(0 0.72113)"/>
</clipPath>
</defs>
</svg>
